<svg xmlns="http://www.w3.org/2000/svg" viewBox="0 0 64 64"><defs><style>.a{fill:#fff;}</style></defs><rect class="a" width="64" height="64" rx="15.81"/><path d="M25.12,22.88a10.67,10.67,0,0,0-.95-.71,12.33,12.33,0,0,0-7-2q-4.62,0-6.8,3.11c-1.44,2.07-2.17,5.05-2.17,9s.73,6.87,2.17,9,3.72,3.14,6.8,3.14a12.41,12.41,0,0,0,7-2c.16-.1.29-.21.43-.31v11h5.61V20.41H25.85ZM23,39a5.78,5.78,0,0,1-4,1.47,4.66,4.66,0,0,1-3.81-1.68q-1.38-1.68-1.38-6.54t1.38-6.53a4.64,4.64,0,0,1,3.81-1.69,5.75,5.75,0,0,1,4,1.49,4.56,4.56,0,0,1,1.59,2.91v7.65A4.51,4.51,0,0,1,23,39Z"/><path d="M48.66,39a4.73,4.73,0,0,1-3.8,1.64,5,5,0,0,1-4-1.84c-1-1.22-1.57-3.35-1.57-6.38q0-4.83,1.56-6.54a5.16,5.16,0,0,1,4-1.72,4.84,4.84,0,0,1,3.81,1.54A6.76,6.76,0,0,1,50.17,30l5-1.71a9.85,9.85,0,0,0-2.53-5.54c-1.49-1.7-4.08-2.56-7.78-2.56q-6.16,0-8.73,3.07t-2.56,9.09q0,5.79,2.56,8.93t8.73,3.15q5.55,0,7.78-2.63a10,10,0,0,0,2.53-5.33l-5-1.79A6.89,6.89,0,0,1,48.66,39Z"/></svg>